#!OML:ASF H:\Terrain\Patient Classification 1\Terrain2\Thursday\justin.ASF
:FULLY-SPECIFIED
:DEGREES
1686
root -3.07743 17.3968 -21.0957 967.311 81.0619 -473.961
lowerback 2.04924 1.33364 6.8414
upperback 1.31597 2.01803 4.12609
thorax 0.289002 1.08882 0.38602
lowerneck -13.9783 -2.98278 -8.32402
upperneck 33.8559 -1.12712 1.25963
head 13.9765 -0.958827 1.8891
rclavicle -2.93207e-015 -2.82274e-014
rhumerus -24.6335 -1.86905 -81.8953
rradius 35.1634
rwrist -16.9391
rhand -21.5126 13.6602
rfingers 7.12502
rthumb 4.8794 -16.2636
lclavicle -2.93207e-015 -2.82274e-014
lhumerus -35.9406 1.28813 88.5037
lradius 36.1714
lwrist 4.73723
lhand -16.4811 21.1198
lfingers 7.12502
lthumb 9.73597 50.8748
rfemur -10.8437 -3.95019 30.9441
rtibia 27.1183
rfoot -15.0373 3.8826
rtoes 14.938
lfemur -14.9443 -3.10642 -12.0038
ltibia 30.2113
lfoot -12.7257 -8.16322
ltoes 20.8086
1687
root -3.02749 17.4042 -21.104 968.426 81.3852 -472.892
lowerback 1.52281 1.34457 6.68864
upperback 1.61384 1.95034 3.98092
thorax 0.889667 1.07091 0.343561
lowerneck -14.2655 -2.91908 -8.16736
upperneck 33.6898 -1.12071 1.34645
head 13.9603 -0.932818 1.89231
rclavicle -2.29099e-014 -1.74931e-014
rhumerus -24.028 -1.76013 -82.2413
rradius 34.9261
rwrist -16.6274
rhand -21.3665 13.6871
rfingers 7.12502
rthumb 5.02047 -16.2334
lclavicle -2.29099e-014 -1.74931e-014
lhumerus -35.495 0.966466 88.5208
lradius 35.7986
lwrist 4.82898
lhand -16.3659 21.1024
lfingers 7.12502
lthumb 9.84715 50.8522
rfemur -10.4468 -2.4595 30.5526
rtibia 27.0201
rfoot -15.1524 3.52328
rtoes 21.2052
lfemur -14.6663 -3.04989 -12.3579
ltibia 30.0312
lfoot -12.984 -7.35055
ltoes 19.4841
1688
root -2.97667 17.4089 -21.1176 970.053 81.5827 -471.398
lowerback 1.75089 1.18965 6.11812
upperback 1.16401 1.79576 4.31388
thorax 0.260919 0.970008 0.987015
lowerneck -13.7449 -2.55708 -8.34045
upperneck 33.7689 -0.531609 1.28854
head 13.8482 -0.695745 1.99699
rclavicle -1.2424e-014 7.95139e-016
rhumerus -24.9706 0.877348 -82.4513
rradius 35.4822
rwrist -18.2958
rhand -22.1571 13.3311
rfingers 7.12502
rthumb 4.25702 -16.6061
lclavicle -1.2424e-014 7.95139e-016
lhumerus -36.2806 1.81765 88.7007
lradius 35.4101
lwrist 4.6802
lhand -17.0743 21.0101
lfingers 7.12502
lthumb 9.16366 50.791
rfemur -10.5173 -2.60897 30.5453
rtibia 26.9925
rfoot -15.4056 3.11369
rtoes 16.8475
lfemur -14.4596 -3.09854 -12.5608
ltibia 29.822
lfoot -13.2551 -6.53164
ltoes 18.3421
1689
root -2.92511 17.428 -21.1305 970.644 81.8802 -470.98
lowerback 1.57833 1.31443 5.92458
upperback 0.972131 1.95036 4.25221
thorax 0.159873 1.03945 1.0299
lowerneck -13.8382 -2.82807 -8.66533
upperneck 34.2706 -0.783232 1.32167
head 14.1193 -0.84198 2.03843
rclavicle -3.13086e-014 2.06736e-014
rhumerus -24.8274 -2.01639 -81.9403
rradius 34.4829
rwrist -15.9431
rhand -22.0181 13.7714
rfingers 7.12502
rthumb 4.3913 -16.1631
lclavicle -3.13086e-014 2.06736e-014
lhumerus -36.4065 1.84281 88.769
lradius 34.8277
lwrist 4.35941
lhand -16.5696 20.8883
lfingers 7.12502
lthumb 9.6506 50.6473
rfemur -10.4609 -2.052 30.1763
rtibia 27.0368
rfoot -15.5724 3.16233
rtoes 18.5556
lfemur -14.254 -3.15197 -12.9328
ltibia 29.5642
lfoot -13.3809 -5.92905
ltoes 16.9383
1690
root -2.87279 17.4286 -21.1343 969.934 82.2606 -471.781
lowerback 1.3263 1.44863 5.69357
upperback 0.973342 2.09032 3.98255
thorax 0.308358 1.10627 0.886353
lowerneck -14.0866 -3.08481 -8.85641
upperneck 34.588 -1.22174 1.76894
head 14.3515 -1.00061 2.1904
rclavicle -3.6477e-014 -4.85035e-014
rhumerus -24.7762 -3.11401 -81.9492
rradius 34.0915
rwrist -15.7713
rhand -22.2637 13.5395
rfingers 7.12502
rthumb 4.15413 -16.3998
lclavicle -3.6477e-014 -4.85035e-014
lhumerus -36.2134 1.70315 88.5689
lradius 34.2529
lwrist 3.64906
lhand -15.6354 20.8795
lfingers 7.12502
lthumb 10.5519 50.5946
rfemur -10.3814 -2.02067 29.7394
rtibia 27.106
rfoot -15.8618 3.15061
rtoes 17.2283
lfemur -14.0167 -2.89468 -13.449
ltibia 29.35
lfoot -13.4813 -5.86444
ltoes 15.6211
